<mxfile host="app.diagrams.net" modified="2021-06-01T11:03:15.355Z" agent="5.0 (Windows NT 10.0; Win64; x64) AppleWebKit/537.36 (KHTML, like Gecko) Chrome/90.0.4430.212 Safari/537.36" etag="f_t7Hh8wZkOxPvwM_je6" version="14.7.3" type="github">
  <diagram id="C5RBs43oDa-KdzZeNtuy" name="Page-1">
    <mxGraphModel dx="1673" dy="934" grid="1" gridSize="10" guides="1" tooltips="1" connect="1" arrows="1" fold="1" page="1" pageScale="1" pageWidth="827" pageHeight="1169" math="0" shadow="0">
      <root>
        <mxCell id="WIyWlLk6GJQsqaUBKTNV-0" />
        <mxCell id="WIyWlLk6GJQsqaUBKTNV-1" parent="WIyWlLk6GJQsqaUBKTNV-0" />
        <mxCell id="0rtbkH3wDljrIdaR5obe-0" value="TestShape" style="swimlane;fontStyle=1;align=center;verticalAlign=top;childLayout=stackLayout;horizontal=1;startSize=26;horizontalStack=0;resizeParent=1;resizeParentMax=0;resizeLast=0;collapsible=1;marginBottom=0;" vertex="1" parent="WIyWlLk6GJQsqaUBKTNV-1">
          <mxGeometry x="239" width="350" height="168" as="geometry">
            <mxRectangle x="40" y="80" width="90" height="26" as="alternateBounds" />
          </mxGeometry>
        </mxCell>
        <mxCell id="0rtbkH3wDljrIdaR5obe-1" value="in: scanner" style="text;strokeColor=none;fillColor=none;align=left;verticalAlign=top;spacingLeft=4;spacingRight=4;overflow=hidden;rotatable=0;points=[[0,0.5],[1,0.5]];portConstraint=eastwest;" vertex="1" parent="0rtbkH3wDljrIdaR5obe-0">
          <mxGeometry y="26" width="350" height="24" as="geometry" />
        </mxCell>
        <mxCell id="0rtbkH3wDljrIdaR5obe-2" value="" style="line;strokeWidth=1;fillColor=none;align=left;verticalAlign=middle;spacingTop=-1;spacingLeft=3;spacingRight=3;rotatable=0;labelPosition=right;points=[];portConstraint=eastwest;" vertex="1" parent="0rtbkH3wDljrIdaR5obe-0">
          <mxGeometry y="50" width="350" height="8" as="geometry" />
        </mxCell>
        <mxCell id="0rtbkH3wDljrIdaR5obe-3" value="+main(String args[]): void&#xa;-inputTriangle(EquilateralTriangle equilateralTriangle) :void&#xa;-inputSquare(Square square):void&#xa;-inputNormalHeight(EquilateralTriangularPrism prism):void&#xa;-inputNormalHeight(SquarePrism prism):void&#xa;-inputSlantHeight(EquilateralTriangularPyramid pyramid):void&#xa;-inputSlantHeight(SquarePyramid pyramid):void&#xa;" style="text;strokeColor=none;fillColor=none;align=left;verticalAlign=top;spacingLeft=4;spacingRight=4;overflow=hidden;rotatable=0;points=[[0,0.5],[1,0.5]];portConstraint=eastwest;" vertex="1" parent="0rtbkH3wDljrIdaR5obe-0">
          <mxGeometry y="58" width="350" height="110" as="geometry" />
        </mxCell>
        <mxCell id="0rtbkH3wDljrIdaR5obe-90" style="edgeStyle=orthogonalEdgeStyle;rounded=0;orthogonalLoop=1;jettySize=auto;html=1;entryX=0.242;entryY=-0.006;entryDx=0;entryDy=0;entryPerimeter=0;" edge="1" parent="WIyWlLk6GJQsqaUBKTNV-1" source="0rtbkH3wDljrIdaR5obe-10" target="0rtbkH3wDljrIdaR5obe-23">
          <mxGeometry relative="1" as="geometry" />
        </mxCell>
        <mxCell id="0rtbkH3wDljrIdaR5obe-10" value="Point2D" style="swimlane;fontStyle=1;align=center;verticalAlign=top;childLayout=stackLayout;horizontal=1;startSize=26;horizontalStack=0;resizeParent=1;resizeParentMax=0;resizeLast=0;collapsible=1;marginBottom=0;" vertex="1" parent="WIyWlLk6GJQsqaUBKTNV-1">
          <mxGeometry x="50" y="170" width="210" height="140" as="geometry">
            <mxRectangle x="480" y="67" width="80" height="26" as="alternateBounds" />
          </mxGeometry>
        </mxCell>
        <mxCell id="0rtbkH3wDljrIdaR5obe-11" value="-x:double&#xa;-y: double" style="text;strokeColor=none;fillColor=none;align=left;verticalAlign=top;spacingLeft=4;spacingRight=4;overflow=hidden;rotatable=0;points=[[0,0.5],[1,0.5]];portConstraint=eastwest;" vertex="1" parent="0rtbkH3wDljrIdaR5obe-10">
          <mxGeometry y="26" width="210" height="34" as="geometry" />
        </mxCell>
        <mxCell id="0rtbkH3wDljrIdaR5obe-13" value="constructor+Point2D(double x, double y)&#xa;+getX: double&#xa;+getY: double&#xa;+setX(double x):void&#xa;+setY(double y ):void" style="text;strokeColor=none;fillColor=none;align=left;verticalAlign=top;spacingLeft=4;spacingRight=4;overflow=hidden;rotatable=0;points=[[0,0.5],[1,0.5]];portConstraint=eastwest;" vertex="1" parent="0rtbkH3wDljrIdaR5obe-10">
          <mxGeometry y="60" width="210" height="80" as="geometry" />
        </mxCell>
        <mxCell id="0rtbkH3wDljrIdaR5obe-19" value="&lt;interface&gt;&#xa;Shape" style="swimlane;fontStyle=0;childLayout=stackLayout;horizontal=1;startSize=26;fillColor=none;horizontalStack=0;resizeParent=1;resizeParentMax=0;resizeLast=0;collapsible=1;marginBottom=0;" vertex="1" parent="WIyWlLk6GJQsqaUBKTNV-1">
          <mxGeometry x="500" y="210" width="170" height="80" as="geometry">
            <mxRectangle x="680" y="60" width="90" height="30" as="alternateBounds" />
          </mxGeometry>
        </mxCell>
        <mxCell id="0rtbkH3wDljrIdaR5obe-20" value="+getDistanceBetweenPoints():double[]&#xa;+getSurfaceArea():double&#xa;" style="text;strokeColor=none;fillColor=none;align=left;verticalAlign=top;spacingLeft=4;spacingRight=4;overflow=hidden;rotatable=0;points=[[0,0.5],[1,0.5]];portConstraint=eastwest;" vertex="1" parent="0rtbkH3wDljrIdaR5obe-19">
          <mxGeometry y="26" width="170" height="54" as="geometry" />
        </mxCell>
        <mxCell id="0rtbkH3wDljrIdaR5obe-80" style="edgeStyle=orthogonalEdgeStyle;rounded=0;orthogonalLoop=1;jettySize=auto;html=1;entryX=0.262;entryY=0.986;entryDx=0;entryDy=0;entryPerimeter=0;" edge="1" parent="WIyWlLk6GJQsqaUBKTNV-1" source="0rtbkH3wDljrIdaR5obe-23" target="0rtbkH3wDljrIdaR5obe-20">
          <mxGeometry relative="1" as="geometry">
            <mxPoint x="550" y="300" as="targetPoint" />
            <Array as="points">
              <mxPoint x="250" y="320" />
              <mxPoint x="545" y="320" />
            </Array>
          </mxGeometry>
        </mxCell>
        <mxCell id="0rtbkH3wDljrIdaR5obe-23" value="EquilateralTriangle&#xa;" style="swimlane;fontStyle=1;align=center;verticalAlign=top;childLayout=stackLayout;horizontal=1;startSize=26;horizontalStack=0;resizeParent=1;resizeParentMax=0;resizeLast=0;collapsible=1;marginBottom=0;" vertex="1" parent="WIyWlLk6GJQsqaUBKTNV-1">
          <mxGeometry x="55" y="350" width="330" height="170" as="geometry">
            <mxRectangle x="340" y="82" width="140" height="26" as="alternateBounds" />
          </mxGeometry>
        </mxCell>
        <mxCell id="0rtbkH3wDljrIdaR5obe-24" value="vertice:Point2D[]" style="text;strokeColor=none;fillColor=none;align=left;verticalAlign=top;spacingLeft=4;spacingRight=4;overflow=hidden;rotatable=0;points=[[0,0.5],[1,0.5]];portConstraint=eastwest;" vertex="1" parent="0rtbkH3wDljrIdaR5obe-23">
          <mxGeometry y="26" width="330" height="26" as="geometry" />
        </mxCell>
        <mxCell id="0rtbkH3wDljrIdaR5obe-25" value="" style="line;strokeWidth=1;fillColor=none;align=left;verticalAlign=middle;spacingTop=-1;spacingLeft=3;spacingRight=3;rotatable=0;labelPosition=right;points=[];portConstraint=eastwest;" vertex="1" parent="0rtbkH3wDljrIdaR5obe-23">
          <mxGeometry y="52" width="330" height="8" as="geometry" />
        </mxCell>
        <mxCell id="0rtbkH3wDljrIdaR5obe-26" value="&lt;constructor&gt;+EquilateralTriangle()&#xa;+ getVertice():Point2D[]&#xa;+setVertice(Point2D a,Point2D b,Point2D c):void &#xa;throws CollinearityException,ThreeSidesInequalityException&#xa;+AreCollineraPoints(Point2D a,Point2D b,Point2D c):boolean&#xa;+areThreeSideEqual(double[] dist):boolean&#xa;+getPerimeter():double" style="text;strokeColor=none;fillColor=none;align=left;verticalAlign=top;spacingLeft=4;spacingRight=4;overflow=hidden;rotatable=0;points=[[0,0.5],[1,0.5]];portConstraint=eastwest;" vertex="1" parent="0rtbkH3wDljrIdaR5obe-23">
          <mxGeometry y="60" width="330" height="110" as="geometry" />
        </mxCell>
        <mxCell id="0rtbkH3wDljrIdaR5obe-71" style="edgeStyle=orthogonalEdgeStyle;rounded=0;orthogonalLoop=1;jettySize=auto;html=1;exitX=0.5;exitY=0;exitDx=0;exitDy=0;entryX=0.5;entryY=1;entryDx=0;entryDy=0;entryPerimeter=0;" edge="1" parent="WIyWlLk6GJQsqaUBKTNV-1" source="0rtbkH3wDljrIdaR5obe-29" target="0rtbkH3wDljrIdaR5obe-26">
          <mxGeometry relative="1" as="geometry" />
        </mxCell>
        <mxCell id="0rtbkH3wDljrIdaR5obe-29" value="EquilateralTriangularPrism" style="swimlane;fontStyle=1;align=center;verticalAlign=top;childLayout=stackLayout;horizontal=1;startSize=26;horizontalStack=0;resizeParent=1;resizeParentMax=0;resizeLast=0;collapsible=1;marginBottom=0;" vertex="1" parent="WIyWlLk6GJQsqaUBKTNV-1">
          <mxGeometry x="90" y="550" width="260" height="180" as="geometry">
            <mxRectangle x="140" y="120" width="190" height="26" as="alternateBounds" />
          </mxGeometry>
        </mxCell>
        <mxCell id="0rtbkH3wDljrIdaR5obe-30" value="+normalHight:double" style="text;strokeColor=none;fillColor=none;align=left;verticalAlign=top;spacingLeft=4;spacingRight=4;overflow=hidden;rotatable=0;points=[[0,0.5],[1,0.5]];portConstraint=eastwest;" vertex="1" parent="0rtbkH3wDljrIdaR5obe-29">
          <mxGeometry y="26" width="260" height="26" as="geometry" />
        </mxCell>
        <mxCell id="0rtbkH3wDljrIdaR5obe-31" value="" style="line;strokeWidth=1;fillColor=none;align=left;verticalAlign=middle;spacingTop=-1;spacingLeft=3;spacingRight=3;rotatable=0;labelPosition=right;points=[];portConstraint=eastwest;" vertex="1" parent="0rtbkH3wDljrIdaR5obe-29">
          <mxGeometry y="52" width="260" height="8" as="geometry" />
        </mxCell>
        <mxCell id="0rtbkH3wDljrIdaR5obe-32" value="&lt;constructor&gt;+ EquilateralTriangularPrism()&#xa;+getNormalHeight():double&#xa;+setNormalHeight(double normalHeight): void &#xa;	throws InvalidNormalHeightException&#xa;+IsNormalHeightValid():boolean&#xa;+ getLateralSurfaceArea():double&#xa;+getVolume():double" style="text;strokeColor=none;fillColor=none;align=left;verticalAlign=top;spacingLeft=4;spacingRight=4;overflow=hidden;rotatable=0;points=[[0,0.5],[1,0.5]];portConstraint=eastwest;" vertex="1" parent="0rtbkH3wDljrIdaR5obe-29">
          <mxGeometry y="60" width="260" height="120" as="geometry" />
        </mxCell>
        <mxCell id="0rtbkH3wDljrIdaR5obe-76" style="edgeStyle=orthogonalEdgeStyle;rounded=0;orthogonalLoop=1;jettySize=auto;html=1;entryX=0.462;entryY=1;entryDx=0;entryDy=0;entryPerimeter=0;" edge="1" parent="WIyWlLk6GJQsqaUBKTNV-1" source="0rtbkH3wDljrIdaR5obe-33" target="0rtbkH3wDljrIdaR5obe-32">
          <mxGeometry relative="1" as="geometry" />
        </mxCell>
        <mxCell id="0rtbkH3wDljrIdaR5obe-33" value=" EquilateralTriangularPyramid" style="swimlane;fontStyle=1;align=center;verticalAlign=top;childLayout=stackLayout;horizontal=1;startSize=26;horizontalStack=0;resizeParent=1;resizeParentMax=0;resizeLast=0;collapsible=1;marginBottom=0;" vertex="1" parent="WIyWlLk6GJQsqaUBKTNV-1">
          <mxGeometry x="90" y="790" width="240" height="140" as="geometry">
            <mxRectangle x="80" y="640" width="200" height="26" as="alternateBounds" />
          </mxGeometry>
        </mxCell>
        <mxCell id="0rtbkH3wDljrIdaR5obe-34" value="slantHight:double" style="text;strokeColor=none;fillColor=none;align=left;verticalAlign=top;spacingLeft=4;spacingRight=4;overflow=hidden;rotatable=0;points=[[0,0.5],[1,0.5]];portConstraint=eastwest;" vertex="1" parent="0rtbkH3wDljrIdaR5obe-33">
          <mxGeometry y="26" width="240" height="26" as="geometry" />
        </mxCell>
        <mxCell id="0rtbkH3wDljrIdaR5obe-35" value="" style="line;strokeWidth=1;fillColor=none;align=left;verticalAlign=middle;spacingTop=-1;spacingLeft=3;spacingRight=3;rotatable=0;labelPosition=right;points=[];portConstraint=eastwest;" vertex="1" parent="0rtbkH3wDljrIdaR5obe-33">
          <mxGeometry y="52" width="240" height="8" as="geometry" />
        </mxCell>
        <mxCell id="0rtbkH3wDljrIdaR5obe-110" value="" style="endArrow=open;endSize=12;dashed=1;html=1;entryX=0.095;entryY=-0.062;entryDx=0;entryDy=0;entryPerimeter=0;" edge="1" parent="0rtbkH3wDljrIdaR5obe-33" target="0rtbkH3wDljrIdaR5obe-64">
          <mxGeometry width="160" relative="1" as="geometry">
            <mxPoint y="90" as="sourcePoint" />
            <mxPoint x="160" y="90" as="targetPoint" />
            <Array as="points">
              <mxPoint x="-30" y="90" />
            </Array>
          </mxGeometry>
        </mxCell>
        <mxCell id="0rtbkH3wDljrIdaR5obe-36" value="&lt;constructor&gt;+EquilateralTriangularPyramid()&#xa;+ getSlantHeight():double&#xa;+setSlantHeight(double slantHeight) :void&#xa;	throws InvalidSlantHeightException&#xa;+IsNormalSlantHeightVaild():boolean" style="text;strokeColor=none;fillColor=none;align=left;verticalAlign=top;spacingLeft=4;spacingRight=4;overflow=hidden;rotatable=0;points=[[0,0.5],[1,0.5]];portConstraint=eastwest;" vertex="1" parent="0rtbkH3wDljrIdaR5obe-33">
          <mxGeometry y="60" width="240" height="80" as="geometry" />
        </mxCell>
        <mxCell id="0rtbkH3wDljrIdaR5obe-81" style="edgeStyle=orthogonalEdgeStyle;rounded=0;orthogonalLoop=1;jettySize=auto;html=1;entryX=0.709;entryY=1;entryDx=0;entryDy=0;entryPerimeter=0;" edge="1" parent="WIyWlLk6GJQsqaUBKTNV-1" source="0rtbkH3wDljrIdaR5obe-37" target="0rtbkH3wDljrIdaR5obe-20">
          <mxGeometry relative="1" as="geometry" />
        </mxCell>
        <mxCell id="0rtbkH3wDljrIdaR5obe-37" value="Square" style="swimlane;fontStyle=1;align=center;verticalAlign=top;childLayout=stackLayout;horizontal=1;startSize=26;horizontalStack=0;resizeParent=1;resizeParentMax=0;resizeLast=0;collapsible=1;marginBottom=0;" vertex="1" parent="WIyWlLk6GJQsqaUBKTNV-1">
          <mxGeometry x="445.5" y="330" width="350" height="190" as="geometry">
            <mxRectangle x="595" y="240" width="70" height="26" as="alternateBounds" />
          </mxGeometry>
        </mxCell>
        <mxCell id="0rtbkH3wDljrIdaR5obe-107" value="" style="endArrow=block;dashed=1;endFill=0;endSize=12;html=1;entryX=0.984;entryY=1.024;entryDx=0;entryDy=0;entryPerimeter=0;" edge="1" parent="0rtbkH3wDljrIdaR5obe-37" target="0rtbkH3wDljrIdaR5obe-20">
          <mxGeometry width="160" relative="1" as="geometry">
            <mxPoint x="221.5" as="sourcePoint" />
            <mxPoint x="381.5" as="targetPoint" />
          </mxGeometry>
        </mxCell>
        <mxCell id="0rtbkH3wDljrIdaR5obe-38" value="+left:Point2D&#xa;+lowerRight:Point2D" style="text;strokeColor=none;fillColor=none;align=left;verticalAlign=top;spacingLeft=4;spacingRight=4;overflow=hidden;rotatable=0;points=[[0,0.5],[1,0.5]];portConstraint=eastwest;" vertex="1" parent="0rtbkH3wDljrIdaR5obe-37">
          <mxGeometry y="26" width="350" height="34" as="geometry" />
        </mxCell>
        <mxCell id="0rtbkH3wDljrIdaR5obe-39" value="" style="line;strokeWidth=1;fillColor=none;align=left;verticalAlign=middle;spacingTop=-1;spacingLeft=3;spacingRight=3;rotatable=0;labelPosition=right;points=[];portConstraint=eastwest;" vertex="1" parent="0rtbkH3wDljrIdaR5obe-37">
          <mxGeometry y="60" width="350" height="8" as="geometry" />
        </mxCell>
        <mxCell id="0rtbkH3wDljrIdaR5obe-40" value="&lt;constructor&gt;+Square()&#xa;+getLeft(): Point2D&#xa;+getLowerRight(): Point2D&#xa;+setVertice(Point2D left,Point2D lowerRight) :void&#xa;	throws Invalid_X_CordinatesException,Invalid_Y_CordinatesException&#xa;+Are_X_CorrdinateVaild(Point2D left,Point2D lowerRight):boolean&#xa;+Are_Y_CorrdinateVaild(Point2D left,Point2D lowerRight):boolean&#xa;+getPerimeter():double&#xa;" style="text;strokeColor=none;fillColor=none;align=left;verticalAlign=top;spacingLeft=4;spacingRight=4;overflow=hidden;rotatable=0;points=[[0,0.5],[1,0.5]];portConstraint=eastwest;" vertex="1" parent="0rtbkH3wDljrIdaR5obe-37">
          <mxGeometry y="68" width="350" height="122" as="geometry" />
        </mxCell>
        <mxCell id="0rtbkH3wDljrIdaR5obe-84" style="edgeStyle=orthogonalEdgeStyle;rounded=1;orthogonalLoop=1;jettySize=auto;html=1;entryX=0.468;entryY=0.997;entryDx=0;entryDy=0;entryPerimeter=0;" edge="1" parent="WIyWlLk6GJQsqaUBKTNV-1" source="0rtbkH3wDljrIdaR5obe-42" target="0rtbkH3wDljrIdaR5obe-40">
          <mxGeometry relative="1" as="geometry" />
        </mxCell>
        <mxCell id="0rtbkH3wDljrIdaR5obe-42" value="SquarePrism" style="swimlane;fontStyle=1;align=center;verticalAlign=top;childLayout=stackLayout;horizontal=1;startSize=26;horizontalStack=0;resizeParent=1;resizeParentMax=0;resizeLast=0;collapsible=1;marginBottom=0;" vertex="1" parent="WIyWlLk6GJQsqaUBKTNV-1">
          <mxGeometry x="440" y="550" width="340" height="200" as="geometry">
            <mxRectangle x="610" y="370" width="110" height="26" as="alternateBounds" />
          </mxGeometry>
        </mxCell>
        <mxCell id="0rtbkH3wDljrIdaR5obe-43" value="+normalHeight:double" style="text;strokeColor=none;fillColor=none;align=left;verticalAlign=top;spacingLeft=4;spacingRight=4;overflow=hidden;rotatable=0;points=[[0,0.5],[1,0.5]];portConstraint=eastwest;" vertex="1" parent="0rtbkH3wDljrIdaR5obe-42">
          <mxGeometry y="26" width="340" height="26" as="geometry" />
        </mxCell>
        <mxCell id="0rtbkH3wDljrIdaR5obe-44" value="" style="line;strokeWidth=1;fillColor=none;align=left;verticalAlign=middle;spacingTop=-1;spacingLeft=3;spacingRight=3;rotatable=0;labelPosition=right;points=[];portConstraint=eastwest;" vertex="1" parent="0rtbkH3wDljrIdaR5obe-42">
          <mxGeometry y="52" width="340" height="8" as="geometry" />
        </mxCell>
        <mxCell id="0rtbkH3wDljrIdaR5obe-45" value="&lt;constructor&gt;+SquarePrism()&#xa;+getNormalHeight():double&#xa;+setNormalHeight(double normalHeight) :void&#xa;	throws InvalidNormalHeightException&#xa;+IsNormalHeightValid(double normalHeight):boolean&#xa;+getLateralSurfaceArea():double&#xa;+ getSurface():double&#xa;+getVolume():double" style="text;strokeColor=none;fillColor=none;align=left;verticalAlign=top;spacingLeft=4;spacingRight=4;overflow=hidden;rotatable=0;points=[[0,0.5],[1,0.5]];portConstraint=eastwest;" vertex="1" parent="0rtbkH3wDljrIdaR5obe-42">
          <mxGeometry y="60" width="340" height="140" as="geometry" />
        </mxCell>
        <mxCell id="0rtbkH3wDljrIdaR5obe-88" style="edgeStyle=orthogonalEdgeStyle;rounded=0;orthogonalLoop=1;jettySize=auto;html=1;exitX=0.5;exitY=0;exitDx=0;exitDy=0;" edge="1" parent="WIyWlLk6GJQsqaUBKTNV-1" source="0rtbkH3wDljrIdaR5obe-46" target="0rtbkH3wDljrIdaR5obe-45">
          <mxGeometry relative="1" as="geometry">
            <mxPoint x="620.7142857142858" y="760" as="targetPoint" />
          </mxGeometry>
        </mxCell>
        <mxCell id="0rtbkH3wDljrIdaR5obe-46" value="SquarePyramid" style="swimlane;fontStyle=1;align=center;verticalAlign=top;childLayout=stackLayout;horizontal=1;startSize=26;horizontalStack=0;resizeParent=1;resizeParentMax=0;resizeLast=0;collapsible=1;marginBottom=0;" vertex="1" parent="WIyWlLk6GJQsqaUBKTNV-1">
          <mxGeometry x="480" y="795" width="281" height="130" as="geometry" />
        </mxCell>
        <mxCell id="0rtbkH3wDljrIdaR5obe-47" value="+slantHeight:double" style="text;strokeColor=none;fillColor=none;align=left;verticalAlign=top;spacingLeft=4;spacingRight=4;overflow=hidden;rotatable=0;points=[[0,0.5],[1,0.5]];portConstraint=eastwest;" vertex="1" parent="0rtbkH3wDljrIdaR5obe-46">
          <mxGeometry y="26" width="281" height="26" as="geometry" />
        </mxCell>
        <mxCell id="0rtbkH3wDljrIdaR5obe-48" value="" style="line;strokeWidth=1;fillColor=none;align=left;verticalAlign=middle;spacingTop=-1;spacingLeft=3;spacingRight=3;rotatable=0;labelPosition=right;points=[];portConstraint=eastwest;" vertex="1" parent="0rtbkH3wDljrIdaR5obe-46">
          <mxGeometry y="52" width="281" height="8" as="geometry" />
        </mxCell>
        <mxCell id="0rtbkH3wDljrIdaR5obe-49" value="&lt;constructor&gt;+SquarePyramid()&#xa;+getSlantHeight():double&#xa;+setSlantHeight(double slantHeight) throws :void&#xa;	InvalidSlantHeightException" style="text;strokeColor=none;fillColor=none;align=left;verticalAlign=top;spacingLeft=4;spacingRight=4;overflow=hidden;rotatable=0;points=[[0,0.5],[1,0.5]];portConstraint=eastwest;" vertex="1" parent="0rtbkH3wDljrIdaR5obe-46">
          <mxGeometry y="60" width="281" height="70" as="geometry" />
        </mxCell>
        <mxCell id="0rtbkH3wDljrIdaR5obe-60" value="«Exception»&lt;br&gt;&lt;b&gt;Invalid_X_CordinatesException&lt;/b&gt;" style="html=1;" vertex="1" parent="WIyWlLk6GJQsqaUBKTNV-1">
          <mxGeometry x="580" y="970" width="230" height="40" as="geometry" />
        </mxCell>
        <mxCell id="0rtbkH3wDljrIdaR5obe-61" value="«Exception»&lt;br&gt;&lt;b&gt;CollinearityException&lt;/b&gt;" style="html=1;" vertex="1" parent="WIyWlLk6GJQsqaUBKTNV-1">
          <mxGeometry x="80" y="970" width="130" height="50" as="geometry" />
        </mxCell>
        <mxCell id="0rtbkH3wDljrIdaR5obe-62" value="«Exception»&lt;br&gt;&lt;b&gt;Invalid_Y_CordinatesException&lt;/b&gt;" style="html=1;" vertex="1" parent="WIyWlLk6GJQsqaUBKTNV-1">
          <mxGeometry x="580" y="1080" width="230" height="40" as="geometry" />
        </mxCell>
        <mxCell id="0rtbkH3wDljrIdaR5obe-63" value="«Exception»&lt;br&gt;&lt;b&gt;InvalidNormalHeightException&lt;/b&gt;" style="html=1;" vertex="1" parent="WIyWlLk6GJQsqaUBKTNV-1">
          <mxGeometry x="310" y="1080" width="230" height="40" as="geometry" />
        </mxCell>
        <mxCell id="0rtbkH3wDljrIdaR5obe-64" value="«Exception»&lt;br&gt;&lt;b&gt;InvalidSlantHeightException&lt;/b&gt;" style="html=1;" vertex="1" parent="WIyWlLk6GJQsqaUBKTNV-1">
          <mxGeometry x="40" y="1080" width="230" height="40" as="geometry" />
        </mxCell>
        <mxCell id="0rtbkH3wDljrIdaR5obe-65" value="«Exception»&lt;br&gt;&lt;b&gt;ThreeSidesInequalityException&lt;/b&gt;" style="html=1;" vertex="1" parent="WIyWlLk6GJQsqaUBKTNV-1">
          <mxGeometry x="240" y="980" width="230" height="40" as="geometry" />
        </mxCell>
        <mxCell id="0rtbkH3wDljrIdaR5obe-89" style="edgeStyle=orthogonalEdgeStyle;rounded=0;orthogonalLoop=1;jettySize=auto;html=1;entryX=0.106;entryY=-0.012;entryDx=0;entryDy=0;entryPerimeter=0;" edge="1" parent="WIyWlLk6GJQsqaUBKTNV-1" source="0rtbkH3wDljrIdaR5obe-13" target="0rtbkH3wDljrIdaR5obe-37">
          <mxGeometry relative="1" as="geometry" />
        </mxCell>
        <mxCell id="0rtbkH3wDljrIdaR5obe-91" value="" style="html=1;verticalAlign=bottom;endArrow=open;dashed=1;endSize=8;" edge="1" parent="WIyWlLk6GJQsqaUBKTNV-1" target="0rtbkH3wDljrIdaR5obe-65">
          <mxGeometry x="-0.0705" y="-2" relative="1" as="geometry">
            <mxPoint x="368" y="522" as="sourcePoint" />
            <mxPoint x="368" y="970" as="targetPoint" />
            <Array as="points">
              <mxPoint x="368" y="960" />
            </Array>
            <mxPoint as="offset" />
          </mxGeometry>
        </mxCell>
        <mxCell id="0rtbkH3wDljrIdaR5obe-92" value="" style="html=1;verticalAlign=bottom;endArrow=open;dashed=1;endSize=8;exitX=-0.004;exitY=0.397;exitDx=0;exitDy=0;exitPerimeter=0;entryX=0;entryY=-0.007;entryDx=0;entryDy=0;entryPerimeter=0;" edge="1" parent="WIyWlLk6GJQsqaUBKTNV-1" source="0rtbkH3wDljrIdaR5obe-3" target="0rtbkH3wDljrIdaR5obe-26">
          <mxGeometry relative="1" as="geometry">
            <mxPoint x="130" y="50" as="sourcePoint" />
            <mxPoint x="20" y="430" as="targetPoint" />
            <Array as="points">
              <mxPoint x="40" y="102" />
              <mxPoint x="40" y="409" />
            </Array>
          </mxGeometry>
        </mxCell>
        <mxCell id="0rtbkH3wDljrIdaR5obe-93" value="" style="html=1;verticalAlign=bottom;endArrow=open;dashed=1;endSize=8;" edge="1" parent="WIyWlLk6GJQsqaUBKTNV-1">
          <mxGeometry relative="1" as="geometry">
            <mxPoint x="400" y="170" as="sourcePoint" />
            <mxPoint x="440" y="400" as="targetPoint" />
            <Array as="points">
              <mxPoint x="400" y="400" />
            </Array>
          </mxGeometry>
        </mxCell>
        <mxCell id="0rtbkH3wDljrIdaR5obe-95" value="" style="html=1;verticalAlign=bottom;endArrow=open;dashed=1;endSize=8;entryX=0;entryY=0.559;entryDx=0;entryDy=0;entryPerimeter=0;" edge="1" parent="WIyWlLk6GJQsqaUBKTNV-1" target="0rtbkH3wDljrIdaR5obe-36">
          <mxGeometry relative="1" as="geometry">
            <mxPoint x="239" y="50" as="sourcePoint" />
            <mxPoint x="20" y="894" as="targetPoint" />
            <Array as="points">
              <mxPoint x="20" y="50" />
              <mxPoint x="20" y="895" />
            </Array>
          </mxGeometry>
        </mxCell>
        <mxCell id="0rtbkH3wDljrIdaR5obe-96" value="" style="html=1;verticalAlign=bottom;endArrow=open;dashed=1;endSize=8;entryX=0.005;entryY=0.586;entryDx=0;entryDy=0;entryPerimeter=0;" edge="1" parent="WIyWlLk6GJQsqaUBKTNV-1" target="0rtbkH3wDljrIdaR5obe-32">
          <mxGeometry relative="1" as="geometry">
            <mxPoint x="239" y="70" as="sourcePoint" />
            <mxPoint x="80" y="680" as="targetPoint" />
            <Array as="points">
              <mxPoint x="29" y="70" />
              <mxPoint x="30" y="680" />
            </Array>
          </mxGeometry>
        </mxCell>
        <mxCell id="0rtbkH3wDljrIdaR5obe-102" value="" style="html=1;verticalAlign=bottom;endArrow=open;dashed=1;endSize=8;exitX=1;exitY=0.5;exitDx=0;exitDy=0;entryX=1.003;entryY=0.117;entryDx=0;entryDy=0;entryPerimeter=0;" edge="1" parent="WIyWlLk6GJQsqaUBKTNV-1" source="0rtbkH3wDljrIdaR5obe-3" target="0rtbkH3wDljrIdaR5obe-42">
          <mxGeometry relative="1" as="geometry">
            <mxPoint x="720" y="60" as="sourcePoint" />
            <mxPoint x="812.0689655172414" y="630" as="targetPoint" />
            <Array as="points">
              <mxPoint x="812" y="113" />
              <mxPoint x="812" y="573" />
            </Array>
          </mxGeometry>
        </mxCell>
        <mxCell id="0rtbkH3wDljrIdaR5obe-103" value="" style="html=1;verticalAlign=bottom;endArrow=open;dashed=1;endSize=8;exitX=0.508;exitY=0.999;exitDx=0;exitDy=0;exitPerimeter=0;" edge="1" parent="WIyWlLk6GJQsqaUBKTNV-1" source="0rtbkH3wDljrIdaR5obe-3">
          <mxGeometry relative="1" as="geometry">
            <mxPoint x="370" y="370" as="sourcePoint" />
            <mxPoint x="480" y="870" as="targetPoint" />
            <Array as="points">
              <mxPoint x="420" y="870" />
            </Array>
          </mxGeometry>
        </mxCell>
        <mxCell id="0rtbkH3wDljrIdaR5obe-104" value="" style="endArrow=block;dashed=1;endFill=0;endSize=12;html=1;exitX=0.75;exitY=0;exitDx=0;exitDy=0;entryX=-0.006;entryY=0.105;entryDx=0;entryDy=0;entryPerimeter=0;" edge="1" parent="WIyWlLk6GJQsqaUBKTNV-1" source="0rtbkH3wDljrIdaR5obe-23" target="0rtbkH3wDljrIdaR5obe-20">
          <mxGeometry width="160" relative="1" as="geometry">
            <mxPoint x="260" y="249.66" as="sourcePoint" />
            <mxPoint x="430" y="250" as="targetPoint" />
            <Array as="points">
              <mxPoint x="300" y="250" />
              <mxPoint x="499" y="250" />
            </Array>
          </mxGeometry>
        </mxCell>
        <mxCell id="0rtbkH3wDljrIdaR5obe-106" value="" style="endArrow=block;dashed=1;endFill=0;endSize=12;html=1;entryX=0.714;entryY=-0.029;entryDx=0;entryDy=0;entryPerimeter=0;rounded=0;" edge="1" parent="WIyWlLk6GJQsqaUBKTNV-1" source="0rtbkH3wDljrIdaR5obe-26" target="0rtbkH3wDljrIdaR5obe-61">
          <mxGeometry width="160" relative="1" as="geometry">
            <mxPoint x="390" y="460" as="sourcePoint" />
            <mxPoint x="545" y="490" as="targetPoint" />
            <Array as="points">
              <mxPoint x="400" y="460" />
              <mxPoint x="400" y="940" />
              <mxPoint x="170" y="940" />
            </Array>
          </mxGeometry>
        </mxCell>
        <mxCell id="0rtbkH3wDljrIdaR5obe-109" value="" style="endArrow=open;endSize=12;dashed=1;html=1;exitX=-0.008;exitY=0.833;exitDx=0;exitDy=0;exitPerimeter=0;" edge="1" parent="WIyWlLk6GJQsqaUBKTNV-1" source="0rtbkH3wDljrIdaR5obe-32">
          <mxGeometry width="160" relative="1" as="geometry">
            <mxPoint x="250" y="910" as="sourcePoint" />
            <mxPoint x="400" y="1080" as="targetPoint" />
            <Array as="points">
              <mxPoint x="50" y="710" />
              <mxPoint x="50" y="1060" />
              <mxPoint x="400" y="1060" />
            </Array>
          </mxGeometry>
        </mxCell>
        <mxCell id="0rtbkH3wDljrIdaR5obe-111" value="" style="endArrow=open;endSize=12;dashed=1;html=1;entryX=0.931;entryY=0.033;entryDx=0;entryDy=0;entryPerimeter=0;" edge="1" parent="WIyWlLk6GJQsqaUBKTNV-1" target="0rtbkH3wDljrIdaR5obe-60">
          <mxGeometry width="160" relative="1" as="geometry">
            <mxPoint x="790" y="523" as="sourcePoint" />
            <mxPoint x="800" y="960" as="targetPoint" />
          </mxGeometry>
        </mxCell>
        <mxCell id="0rtbkH3wDljrIdaR5obe-112" value="" style="endArrow=open;endSize=12;dashed=1;html=1;" edge="1" parent="WIyWlLk6GJQsqaUBKTNV-1" target="0rtbkH3wDljrIdaR5obe-62">
          <mxGeometry width="160" relative="1" as="geometry">
            <mxPoint x="440" y="470" as="sourcePoint" />
            <mxPoint x="570" y="720" as="targetPoint" />
            <Array as="points">
              <mxPoint x="420" y="470" />
              <mxPoint x="420" y="960" />
              <mxPoint x="560" y="960" />
              <mxPoint x="560" y="1060" />
              <mxPoint x="695" y="1060" />
            </Array>
          </mxGeometry>
        </mxCell>
        <mxCell id="0rtbkH3wDljrIdaR5obe-113" value="" style="endArrow=open;endSize=12;dashed=1;html=1;exitX=0.091;exitY=1.012;exitDx=0;exitDy=0;exitPerimeter=0;entryX=0.75;entryY=0;entryDx=0;entryDy=0;" edge="1" parent="WIyWlLk6GJQsqaUBKTNV-1" source="0rtbkH3wDljrIdaR5obe-45" target="0rtbkH3wDljrIdaR5obe-63">
          <mxGeometry x="0.0826" y="-17" width="160" relative="1" as="geometry">
            <mxPoint x="290" y="910" as="sourcePoint" />
            <mxPoint x="450" y="910" as="targetPoint" />
            <Array as="points">
              <mxPoint x="470" y="940" />
              <mxPoint x="483" y="940" />
            </Array>
            <mxPoint as="offset" />
          </mxGeometry>
        </mxCell>
        <mxCell id="0rtbkH3wDljrIdaR5obe-114" value="" style="endArrow=open;endSize=12;dashed=1;html=1;exitX=0.234;exitY=1.043;exitDx=0;exitDy=0;exitPerimeter=0;" edge="1" parent="WIyWlLk6GJQsqaUBKTNV-1" source="0rtbkH3wDljrIdaR5obe-49" target="0rtbkH3wDljrIdaR5obe-64">
          <mxGeometry width="160" relative="1" as="geometry">
            <mxPoint x="540.5" y="960" as="sourcePoint" />
            <mxPoint x="700.5" y="960" as="targetPoint" />
            <Array as="points">
              <mxPoint x="546" y="1050" />
              <mxPoint x="150" y="1050" />
            </Array>
          </mxGeometry>
        </mxCell>
      </root>
    </mxGraphModel>
  </diagram>
</mxfile>
